<?xml version="1.0" encoding="UTF-8"?><svg id="Layer_1" xmlns="http://www.w3.org/2000/svg" viewBox="30 0 130 105">
<defs><style>
.cls-1{font-family:SourceSansPro-Regular, 'Source Sans Pro',seri;font-size:9px;}
.cls-2{stroke-width:.5px;}
.cls-2,.cls-3,.cls-4,.cls-5{fill:none;stroke:#000;}
.cls-3{stroke-width:.5px;}
.cls-4{stroke-dasharray:0 0 2 2;stroke-width:.5px;}
.cls-6{font-size:8px;}
.cls-6,.cls-7{font-family:SourceSansPro-Regular, 'Source Sans Pro',serif;}
.cls-7{font-size:8px;}
</style></defs>
<polyline class="cls-3" points="38.24 94.17 73.42 4.68 108.4 94.17"/>
<polyline class="cls-3" points="92.62 94.17 73.41 40.74 54.09 94.17"/>
<polyline class="cls-5" points="46.05 94.17 73.41 22.51 100.75 94.17"/>
<text class="cls-7" transform="translate(87.3 102.31)"><tspan x="0" y="0">Line width</tspan></text>
<text class="cls-1" transform="translate(70.73 66.54) scale(.97) skewX(-15)"><tspan x="0" y="0">θ</tspan></text>
<g>
    <polygon points="76.88 60.65 75.72 58 79.32 58 76.88 60.65"/>
    <path class="cls-2" d="m67.39,57.85c1.75,1.17,3.85,1.85,6.11,1.85,1.34,0,2.63-.24,3.83-.68"/>
</g>
<g>
    <line class="cls-4" x1="73.48" y1="4.28" x2="39.27" y2="4.28"/>
    <line class="cls-4" x1="73.48" y1="40.26" x2="39.27" y2="40.26"/>
    <g>
        <text class="cls-6" transform="translate(37.44 20.03)">
            <tspan x="0" y="0">Mitre</tspan>
            <tspan x="-1.99" y="8">length</tspan>
        </text>
        <line class="cls-2" x1="46.27" y1="5.43" x2="46.27" y2="13.24"/>
        <line class="cls-2" x1="46.27" y1="30.84" x2="46.27" y2="38.54"/>
        <polygon points="46.24 4.22 47.32 7.45 45.15 7.45 46.24 4.22"/>
        <polygon points="46.24 39.99 47.32 36.76 45.15 36.76 46.24 39.99"/>
    </g>
</g>
<g>
    <line class="cls-2" x1="92.78" y1="88.73" x2="104.2" y2="83.98"/>
    <polygon points="104.2 83.98 100.84 84.22 101.66 86.2 104.2 83.98"/>
    <polygon points="90.96 89.57 94.32 89.32 93.49 87.34 90.96 89.57"/>
</g>
</svg>